# xmcd CD database file
#
# Track frame offsets:
#	150
#	14775
#	27587
#	41632
#	53612
#	68455
#	84645
#	96355
#	107135
#	118535
#	133737
#	147147
#	161925
#	177915
#	185580
#	193487
#	207567
#
# Disc length: 2961 seconds
#
# Revision: 1
# Processed by: cddbd v1.5.2PL0 Copyright (c) Steve Scherf et al.
# Submitted via: CDex 1.50Beta7
#
DISCID=040b8f11
DTITLE=Glenn Miller - The Best Of Glenn Miller
DYEAR=1999
DGENRE=Jazz
TTITLE0=Pennsylvania 6-5000
TTITLE1=The Little Man Wasn't There
TTITLE2=Don't Sit Under The Appletree
TTITLE3=I've Got A Girl In Kalamazoo
TTITLE4=Indian Summer
TTITLE5=American Patrol
TTITLE6=Blue Champagne
TTITLE7=Moonlight Serenade
TTITLE8=Sun Valley Jump
TTITLE9=Perfidia
TTITLE10=String Of Pearls
TTITLE11=Sunrise Serenade
TTITLE12=St. Louis Blues March
TTITLE13=Moonlight Cocktail
TTITLE14=Under A Blanket Of Blue
TTITLE15=At Last
TTITLE16=The Chestnut Tree
EXTD=
EXTT0=
EXTT1=
EXTT2=
EXTT3=
EXTT4=
EXTT5=
EXTT6=
EXTT7=
EXTT8=
EXTT9=
EXTT10=
EXTT11=
EXTT12=
EXTT13=
EXTT14=
EXTT15=
EXTT16=
PLAYORDER=
